<svg width="24" height="24" viewBox="0 0 24 24" fill="none" xmlns="http://www.w3.org/2000/svg">
<path d="M9.65432 9.45013V8.51342C9.33286 8.46947 9.00657 8.44238 8.67366 8.44238C4.66132 8.44238 1.39667 11.707 1.39667 15.72C1.39667 18.1822 2.62656 20.3608 4.5036 21.678C3.29237 20.3777 2.5495 18.6361 2.5495 16.7229C2.5495 12.7678 5.72145 9.54224 9.65493 9.45013H9.65432Z" fill="#25F4EE"/>
<path d="M9.82592 20.0467C11.6163 20.0467 13.0767 18.6223 13.1429 16.8482L13.1496 1.00354H16.044C15.9838 0.677854 15.9507 0.343141 15.9507 0H11.9973L11.9907 15.8447C11.9245 17.6188 10.464 19.0431 8.67368 19.0431C8.11743 19.0431 7.59309 18.9041 7.13196 18.6614C7.73577 19.4988 8.71703 20.0467 9.82592 20.0467Z" fill="#25F4EE"/>
<path d="M21.4511 6.38131V5.50058C20.3471 5.50058 19.3182 5.17249 18.4556 4.60962C19.2237 5.49155 20.267 6.12787 21.4511 6.38131Z" fill="#25F4EE"/>
<path d="M18.4562 4.60952C17.6146 3.64331 17.1035 2.38212 17.1035 1.00293H16.0446C16.3233 2.50914 17.2173 3.80164 18.4562 4.60952Z" fill="#FE2C55"/>
<path d="M8.67369 12.3963C6.84119 12.3963 5.35004 13.8875 5.35004 15.72C5.35004 16.9962 6.07424 18.1051 7.13196 18.6614C6.73765 18.1147 6.50287 17.4465 6.50287 16.7229C6.50287 14.8904 7.99403 13.3993 9.82652 13.3993C10.1685 13.3993 10.4965 13.4558 10.8072 13.5528V9.51635C10.4857 9.4724 10.1594 9.44531 9.82652 9.44531C9.76873 9.44531 9.71214 9.44832 9.65495 9.44953V12.5492C9.34432 12.4523 9.01623 12.3957 8.67429 12.3957L8.67369 12.3963Z" fill="#FE2C55"/>
<path d="M21.4511 6.3811V9.45372C19.4013 9.45372 17.5014 8.79814 15.9507 7.68504V15.72C15.9507 19.7329 12.686 22.997 8.67366 22.997C7.1229 22.997 5.68532 22.5081 4.50299 21.678C5.83221 23.1053 7.72611 23.9999 9.82589 23.9999C13.8388 23.9999 17.1029 20.7352 17.1029 16.7229V8.68858C18.6536 9.80168 20.5536 10.4573 22.6034 10.4573V6.50331C22.2079 6.50331 21.8226 6.46057 21.4511 6.3811Z" fill="#FE2C55"/>
<path d="M15.9506 15.7201V7.68515C17.5014 8.79825 19.4013 9.45383 21.4511 9.45383V6.38121C20.267 6.12777 19.2237 5.49206 18.4556 4.60952C17.2167 3.80164 16.3227 2.50974 16.044 1.00293H13.1495L13.1429 16.8476C13.0767 18.6217 11.6162 20.046 9.82589 20.046C8.717 20.046 7.73573 19.4982 7.13193 18.6608C6.07421 18.104 5.35 16.9951 5.35 15.7195C5.35 13.887 6.84116 12.3958 8.67365 12.3958C9.01559 12.3958 9.34368 12.4524 9.65431 12.5493V9.44961C5.72084 9.54172 2.54889 12.7672 2.54889 16.7224C2.54889 18.6356 3.29176 20.3771 4.50299 21.6775C5.68472 22.507 7.1229 22.9965 8.67365 22.9965C12.686 22.9965 15.9506 19.7318 15.9506 15.7195V15.7201Z" fill="black"/>
</svg>
