<svg width="24" height="24" viewBox="0 0 24 24" fill="none" xmlns="http://www.w3.org/2000/svg">
<path d="M23.4985 6.18591C23.2225 5.14655 22.4093 4.32809 21.3766 4.05032C19.505 3.5455 12 3.5455 12 3.5455C12 3.5455 4.495 3.5455 2.62335 4.05032C1.59076 4.32809 0.777485 5.14655 0.501509 6.18591C0 8.06968 0 12 0 12C0 12 0 15.9304 0.501509 17.8143C0.777485 18.8535 1.59076 19.672 2.62335 19.9499C4.495 20.4546 12 20.4546 12 20.4546C12 20.4546 19.505 20.4546 21.3766 19.9499C22.4093 19.672 23.2225 18.8535 23.4985 17.8143C24 15.9304 24 12 24 12C24 12 24 8.06968 23.4985 6.18591Z" fill="#ED1D24"/>
<path d="M9.54547 15.5686L15.8182 12.0003L9.54547 8.43167V15.5686Z" fill="white"/>
</svg>
