<svg width="24" height="24" viewBox="0 0 24 24" fill="none" xmlns="http://www.w3.org/2000/svg">
<path fill-rule="evenodd" clip-rule="evenodd" d="M21.3766 4.05032C22.4093 4.32809 23.2225 5.14655 23.4985 6.18591C24 8.06968 24 12 24 12C24 12 24 15.9304 23.4985 17.8143C23.2225 18.8535 22.4093 19.672 21.3766 19.9499C19.505 20.4546 12 20.4546 12 20.4546C12 20.4546 4.495 20.4546 2.62335 19.9499C1.59076 19.672 0.777485 18.8535 0.501509 17.8143C0 15.9304 0 12 0 12C0 12 0 8.06968 0.501509 6.18591C0.777485 5.14655 1.59076 4.32809 2.62335 4.05032C4.495 3.5455 12 3.5455 12 3.5455C12 3.5455 19.505 3.5455 21.3766 4.05032ZM15.8182 12.0002L9.54545 15.5685V8.43158L15.8182 12.0002Z" fill="white"/>
</svg>
