<svg width="24" height="24" viewBox="0 0 24 24" fill="none" xmlns="http://www.w3.org/2000/svg">
<path d="M19.3387 4.8106C18.0456 3.96779 17.1131 2.61871 16.8217 1.04688C16.7591 0.707352 16.7242 0.357589 16.7242 0H12.5981L12.5915 16.5358C12.5222 18.3875 10.998 19.8739 9.12995 19.8739C8.54902 19.8739 8.0024 19.7288 7.5208 19.4754C6.41673 18.8944 5.66121 17.7374 5.66121 16.4057C5.66121 14.4932 7.21739 12.937 9.12935 12.937C9.48633 12.937 9.82887 12.996 10.1527 13.0971V8.88494C9.81743 8.83919 9.4767 8.8109 9.12935 8.8109C4.94182 8.8109 1.5351 12.2176 1.5351 16.4057C1.5351 18.9751 2.81856 21.2489 4.77748 22.6238C6.01098 23.4901 7.51177 24 9.12995 24C13.3175 24 16.7242 20.5933 16.7242 16.4057V8.02047C18.3424 9.18173 20.3254 9.8662 22.4649 9.8662V5.74009C21.3127 5.74009 20.2393 5.39755 19.3387 4.8106Z" fill="white"/>
</svg>
