<svg width="24" height="24" viewBox="0 0 24 24" fill="none" xmlns="http://www.w3.org/2000/svg">
<path d="M21.543 7.10412C21.5576 7.3157 21.5576 7.52728 21.5576 7.74081C21.5576 14.2471 16.6045 21.7508 7.54759 21.7508V21.7469C4.87215 21.7508 2.25229 20.9844 0 19.5395C0.389031 19.5863 0.780012 19.6097 1.17197 19.6106C3.38915 19.6126 5.54296 18.8687 7.28726 17.4988C5.18026 17.4588 3.3326 16.085 2.68714 14.0794C3.42523 14.2217 4.18574 14.1925 4.91018 13.9946C2.61304 13.5304 0.96039 11.5122 0.96039 9.16823C0.96039 9.14678 0.96039 9.12631 0.96039 9.10583C1.64485 9.48706 2.41121 9.69864 3.19512 9.72204C1.03157 8.27609 0.364656 5.39785 1.67118 3.14751C4.17111 6.22369 7.8596 8.09376 11.8191 8.29169C11.4223 6.58152 11.9644 4.78944 13.2436 3.58724C15.2268 1.72302 18.3459 1.81857 20.2101 3.80077C21.3129 3.58334 22.3698 3.17871 23.337 2.6054C22.9694 3.7452 22.2001 4.71339 21.1725 5.32862C22.1484 5.21357 23.102 4.95227 24 4.55348C23.3389 5.5441 22.5063 6.40699 21.543 7.10412Z" fill="#1D9BF0"/>
</svg>
