<svg width="1197" height="362" viewBox="0 0 1197 362" fill="none" xmlns="http://www.w3.org/2000/svg">
<path d="M215.308 51.449C215.758 51.617 216.21 51.785 216.662 51.953C219.938 48.5676 221.729 44.6343 222.5 40.3223C220.102 44.0316 217.705 47.741 215.308 51.449ZM229.884 252.974C230.057 248.494 234.065 243.765 231.805 238.125C230.284 244.06 228.676 248.612 229.884 252.974ZM211.421 61.8756C195.617 83.301 186.441 106.285 176.45 129.082C190.154 107.173 197.808 83.825 211.421 61.8756ZM156.072 142.652C154.888 145.608 154.182 147.366 153.476 149.125C152.717 148.914 151.652 148.914 151.249 148.454C149.488 146.448 152.07 144.576 153.201 142.868C156.921 137.25 157.637 131.229 160.446 125.496C162.2 121.92 163.212 118.185 167.121 115.374C167.758 114.917 168.609 113.836 168.436 113.481C164.934 106.337 172.377 99.9063 176.942 95.625C181.824 91.0476 177.654 86.8596 182.148 84.0476C182.357 89.9383 182.378 89.9476 175.066 100.174C173.884 101.829 177.729 102.192 175.282 104.346C174.122 105.369 173.302 107.369 173.814 109.48C177.666 106.553 179.309 102.702 180.352 99.9436C183.288 92.165 187.734 84.8276 191.598 77.3276C193.853 72.9503 190.736 68.677 194.574 64.3036C195.692 63.0316 195.302 60.7983 198.449 61.985C200.384 62.7156 200.581 60.5196 201.202 59.4716C205.777 51.7636 210.068 43.9636 214.902 36.3423C218.721 30.3236 223.26 24.5476 227.306 18.5983C228.196 17.2916 229.286 17.1449 230.536 16.7396C232.073 16.2423 232.576 15.185 232.47 13.989C232.388 13.0623 232.141 12.0836 230.67 12.5316C229.317 12.945 227.796 13.5796 227.924 11.9063C228.116 9.41561 231.03 8.07029 232.808 6.28628C233.798 5.29295 235.149 5.73031 236.412 5.99165C237.894 6.29831 235.994 9.20897 238.562 8.1503C241.137 7.0903 239.302 5.66097 239.322 4.37564C239.33 3.89297 239.814 3.33831 240.142 2.69831C244.605 7.15698 250.532 3.37832 255.772 2.11299C257.884 1.60365 259.248 0.448955 261.328 1.79829C263.838 3.42362 267.384 2.41962 270.669 1.30362C278.609 -1.39638 282.033 0.00762753 282.684 6.36229C284.036 19.569 280.716 33.1063 277.426 46.6236C275.489 54.581 274.985 62.8143 271.836 70.429C264.64 87.8196 262.884 105.14 258.862 122.461C246.484 175.777 235.153 229.088 228.933 282.257C228.873 282.768 228.628 283.293 228.137 284.896C226.414 280.526 227.394 276.717 227.936 273.016C228.473 269.35 229.221 265.674 229.118 262.032C225.25 274.99 223.125 287.9 221.612 300.789C219.858 315.729 218.902 330.573 219.494 345.225C219.545 346.505 220.497 348.141 218.473 349.294C216.653 350.332 216.074 348.425 214.632 348.277C212.948 349.918 216.114 351.068 214.193 352.757C210.398 352.965 213.832 348.865 210.877 348.244C207.925 350.569 211.841 355.424 204.609 356.345C203.646 356.068 206.002 353.333 203.725 352.846C201.625 354.742 203.446 356.217 203.376 358.093C201.686 357.584 199.041 359.178 198.521 356.721C198.421 356.246 197.536 355.812 197.537 355.982C197.589 361.414 192.877 358.472 190.776 359.236C179.373 363.381 174.969 361.005 175.04 351.358C175.297 316.696 179.796 281.66 185.534 246.505C191.844 207.856 200.516 169.168 208.296 130.493C208.474 129.6 208.616 128.706 208.202 127.73C202.638 134.66 200.258 142.252 197.161 149.712C191.144 164.2 184.701 178.626 178.821 193.133C173.636 205.928 169.032 218.782 160.56 230.926C158.077 234.484 155.666 236.237 151.057 236.01C144.328 235.678 137.194 236.688 131.072 234.449C129.816 233.99 128.124 233.366 127.433 235.42C126.812 237.264 125.478 237.35 124.929 236.345C121.666 230.377 114.1 233.768 108.429 233.229C106.049 233.005 104.504 232.364 103.644 230.806C97.0169 218.808 95.6956 205.148 94.0743 191.48C92.6543 179.516 93.2903 167.032 89.2236 155.041C84.3769 163.768 81.0623 172.294 77.9263 180.84C69.0196 205.112 55.7396 253.332 48.4636 277.705C45.6369 287.177 44.9903 287.358 34.1396 286.15C28.9169 285.569 23.9529 285.78 19.3703 283.038C17.5089 281.925 10.7676 282.004 6.43293 283.104C0.0049324 284.736 -0.0737186 280.809 0.0156147 278.177C0.247615 271.354 1.09428 264.617 5.73961 257.593C10.7649 249.994 19.0263 217.764 21.3089 209.646C23.5623 201.64 23.7276 193.32 32.5969 186.561C33.8529 185.605 36.2009 183.744 35.6209 181.172C34.4489 179.554 32.8623 185.468 31.4329 182.253C30.3316 179.772 32.0436 177.038 34.0396 175.654C45.1156 167.976 43.5156 158.176 45.8689 149.144C46.2609 147.636 45.3636 147.565 47.6983 146.501C51.9209 144.574 54.0449 132.102 50.9529 129.452C49.3076 128.041 50.3743 126.421 50.9436 124.942C55.8423 112.225 57.7423 99.3183 63.9076 86.5556C66.2289 81.7516 69.5116 77.317 71.7343 72.5636C74.3543 66.961 77.8649 61.4743 79.8609 55.8223C81.5663 50.9903 85.1636 50.633 89.2089 50.1876C91.5756 49.9263 93.8316 50.0703 96.1596 48.5316C97.5863 47.5903 99.7396 46.673 98.9769 49.653C98.5569 51.301 100.078 50.089 100.553 49.8716C105.493 47.6063 110.502 48.8436 115.438 47.2396C115.968 47.0676 116.914 46.6423 116.949 46.7063C119.501 51.245 124.886 48.5076 128.881 47.677C133.002 46.8196 133.569 48.1436 134.094 50.6396C138.782 72.921 140.76 95.7916 139.021 119.384C138.116 131.672 140.604 143.269 140.293 155.41C140.262 156.653 140.733 157.862 141.21 158.982C141.605 159.912 142.064 161.125 143.621 160.872C145.34 160.592 145.396 159.206 145.538 158.174C146.105 154.108 151.05 153.98 153.692 151.833C157.52 148.722 158.298 146.574 156.072 142.652Z" fill="#FF33BB"/>
<path d="M1018.08 243.332C1031.14 246.883 1046.52 243.012 1057.22 245.415C1058.46 245.076 1060.28 244.78 1060.82 244.392C1062.17 243.432 1059.82 242.911 1055.73 242.765C1043.81 242.34 1032.31 242.843 1018.08 243.332ZM980.326 243.415C977.641 241.86 969.997 240.339 975.248 238.655C980.568 236.948 989.192 238.152 996.064 237.884C998.022 239.488 994.509 239.615 990.83 239.649C987.518 239.68 982.624 239.388 983.55 240.577C984.001 241.157 988.506 242.029 990.972 241.997C1000.6 241.867 1010.14 241.428 1020 241.095C1017.67 238.897 1008.11 239.925 1003.02 238.184C1015.89 239.321 1015.88 235.107 1030.56 236.072C1049.45 237.313 1070.08 237.111 1082.68 232.724C1087.54 231.032 1093.43 231.492 1099.31 231.452C1117.51 231.329 1135.99 231.767 1153.75 230.035C1149.23 228.323 1139.27 229.923 1134.02 227.869C1162.19 228.677 1167.67 220.945 1194.5 221.06C1189.02 228.157 1200.76 235.468 1191.32 242.835C1186.86 246.323 1198.27 249.701 1196.12 253.525C1192.86 259.305 1169.91 263.3 1145.06 261.071C1136.91 260.34 1131.82 260.204 1124.07 261.039C1110.91 262.456 1096.12 261.895 1082.01 262.208C1050.66 262.904 1019.12 264.085 988.12 264.499C948.525 265.024 909.786 266.175 870.986 267.697C869.605 267.752 867.921 267.811 866.749 267.688C840.213 264.904 816.985 268.993 792.052 269.48C755.925 270.187 720.977 273.66 683.622 271.731C678.601 271.471 672.552 272.121 667.064 272.428C566.856 278.02 467.048 284.039 364.088 286.675C331.441 287.511 298.761 287.707 265.958 287.221C256.329 287.079 253.208 286.671 251.372 284.009C247.654 278.621 256.722 273.475 252.565 268.088C249.912 264.649 259.75 261.16 274.773 260.031C305.913 257.691 336.82 253.811 371.549 257.129C372.154 257.188 373.208 257.235 373.569 257.163C392.704 253.376 411.838 258.693 431.38 257.187C436.556 256.787 445.08 256.012 448.833 258.833C450.562 260.135 462.145 259.235 467.781 257.633C479.128 254.411 480.049 254.557 493.95 257.013C497.544 257.649 504.908 257.433 510.341 257.272C531.353 256.645 552.284 255.884 576.897 255.048C557.042 259.617 528.876 256.835 508.812 260.943C520.805 260.6 529.677 260.259 538.61 260.117C546.669 259.991 555.441 259.461 553.752 262.773C552.624 264.985 560.692 265.109 568.766 264.391C598.949 261.703 629.57 260.153 661.85 262.559C667.164 262.955 668.321 261.653 670.706 260.919C672.974 260.221 676.194 259.835 679.941 260.28C683.472 260.699 684.788 261.36 682.817 262.265C681.356 262.937 678.709 263.8 684.574 264.071C688.928 264.271 690.869 263.493 692.306 262.743C697.936 259.807 704.442 260.565 712.325 263.284C712.941 258.473 729.218 257.4 739.96 255.229C746.316 256.783 733.75 257.521 736.762 258.943C744.297 259.603 747.073 258.375 750.289 257.328C752.96 256.457 759.088 255.773 758.729 257.093C758.08 259.488 779.569 255.441 770.125 259.367C766.597 260.833 772.801 261.059 776.305 260.933C782.47 260.712 791.965 260.471 793.762 259.589C803.652 254.735 825.829 256.443 841.44 254.779C853.294 253.516 852.949 256.98 858.474 258.561C864.505 252.832 881.65 251.145 902.062 253.86C897.854 250.761 897.854 250.761 883.5 248.343C901.585 247.377 901.585 247.377 910.9 252.121C923.012 251.743 915.588 248.677 923.162 247.671C928.908 248.275 922.013 249.755 926.588 250.467C931.228 250.187 931.181 249.38 931.205 248.569C931.228 247.769 927.425 246.329 935.061 246.588C943.391 246.871 937.174 247.723 935.63 248.491C930.582 250.999 937.093 251.763 946.513 251.503C954.177 251.292 961.481 250.472 969.14 250.18C976.46 249.9 985.465 249.24 983.041 252.481C981.986 253.892 988.881 254.985 994.718 254.416C1009.47 252.977 990.834 253.291 992.081 252.345C993.877 250.984 994.298 250.035 1003.21 249.656C1025.25 248.72 1047.8 249.256 1069.98 247.987C1062.14 246.369 1052.17 247.516 1043.64 247.211C1035.84 246.932 1028.81 247.587 1020.76 246.072C1010.83 244.2 1005.77 247.211 999.45 248.285C984.905 246.591 1010.75 245.068 999.178 243.632C993.629 242.944 986.964 241.58 980.292 243.411L980.326 243.415Z" fill="#FF33BB"/>
<path d="M980.292 243.411C941.296 245.525 900.92 244.729 861.795 246.573C900.468 243.752 939.591 241.883 980.324 243.413L980.292 243.411Z" fill="#FF33BB"/>
<path d="M914.193 241.195C927.772 238.883 944.097 240.169 957.433 238.173C961.159 237.615 963.971 238.338 963.795 239.298C963.692 239.858 963.791 240.497 959.493 240.542C944.381 240.703 929.291 240.969 914.193 241.195Z" fill="#FF33BB"/>
<path d="M327.922 200.192H290.219C289.06 199.863 288.73 198.38 288.73 188.657V109.555H327.095V188.657C327.095 197.885 327.095 199.697 327.922 200.192ZM288.564 74.4532H327.259V102.304H288.564V74.4532Z" fill="#1419E9"/>
<path d="M407.465 228.701H367.777L380.345 200.85L339.5 109.555H379.353C379.519 110.873 400.355 163.937 400.52 165.419C400.685 163.937 421.191 111.202 421.356 109.555H460.383L407.465 228.701Z" fill="#1419E9"/>
<path d="M535.959 137.735C533.148 134.108 527.36 131.472 519.423 131.472C511.816 131.472 505.863 133.779 502.555 137.569C500.571 139.876 499.083 143.501 498.918 145.48H538.77C538.77 143.337 537.943 140.207 535.959 137.735ZM565.89 186.679C556.96 196.567 541.747 201.675 519.423 201.675C496.932 201.675 480.066 195.907 470.64 183.217C465.018 175.967 461.875 166.573 461.875 154.379C461.875 143.501 464.852 133.779 471.302 126.199C481.058 114.168 497.264 107.248 519.754 107.248C547.204 107.248 564.236 118.783 571.678 135.923C574.986 143.996 576.308 153.719 575.482 163.936H498.918C499.083 166.573 499.91 169.54 502.059 172.176C505.036 175.967 511.486 177.944 519.423 177.944C526.038 177.944 530.832 176.627 533.81 174.649C536.455 173 537.943 171.023 538.274 169.375H574.82C573.827 174.979 570.686 181.405 565.89 186.679Z" fill="#1419E9"/>
<path d="M671.893 141.855C665.113 139.548 658.829 138.064 648.081 138.064C635.348 138.064 627.741 145.48 627.741 159.159V200.192H589.541V109.555H626.584V124.881C628.237 114.663 643.946 107.248 656.349 107.248C663.129 107.248 668.586 108.072 671.893 109.06V141.855Z" fill="#1419E9"/>
<path d="M685.127 200.192C684.466 199.863 684.466 198.875 684.466 190.799V80.3866C684.466 75.1119 684.135 71.1586 683.805 69.6732H721.507C721.838 71.1586 722.169 74.6172 722.169 78.9026V191.952C722.169 196.731 722.169 199.368 723.161 200.192H685.127Z" fill="#1419E9"/>
<path d="M795.426 161.795C782.527 161.795 776.739 165.585 776.739 172.176C776.739 176.461 780.378 178.439 788.977 178.439C798.402 178.439 808.159 175.308 811.135 163.936C806.671 162.619 803.859 161.795 795.426 161.795ZM813.451 200.192C812.789 200.192 811.797 196.236 811.797 192.447C805.017 198.049 792.285 201.345 774.259 201.345C754.085 201.345 739.202 194.424 738.375 178.603C738.375 177.449 738.21 173.989 738.541 171.517C739.367 156.687 754.415 144.987 787.654 143.832C794.765 143.667 802.371 143.996 810.639 144.821C810.474 142.513 810.309 140.867 809.317 138.559C807.663 134.768 803.033 132.461 795.757 132.461C789.638 132.461 785.339 133.285 782.693 135.593C780.543 137.569 779.221 139.712 779.055 141.689H743.171C743.337 137.405 744.825 131.143 747.47 126.693C756.069 112.192 772.937 107.248 797.079 107.248C826.514 107.248 842.555 117.135 846.027 133.12C847.185 138.228 847.846 148.116 847.515 156.192C847.35 161.465 847.35 171.517 847.35 179.428C847.35 187.832 847.681 198.049 849.335 200.192H813.451Z" fill="#1419E9"/>
<path d="M972.537 200.192H935.496C934.008 200.192 934.008 198.875 934.008 150.919C934.008 142.184 930.038 137.076 920.778 137.076C911.517 137.076 904.737 142.843 904.737 151.083V200.192H867.034V109.555H903.58V122.408C908.872 112.356 921.936 107.412 936.653 107.412C961.457 107.412 971.876 121.256 971.876 142.843C971.876 195.413 971.876 199.863 972.537 200.192Z" fill="#1419E9"/>
<path d="M1028.44 141.195C1025.79 144.491 1024.47 149.929 1024.47 154.873C1024.47 159.653 1025.62 164.761 1027.77 167.891C1030.58 172.011 1035.88 175.142 1044.48 175.142C1052.58 175.142 1057.54 172.835 1060.68 169.046C1063.49 165.585 1065.15 160.146 1065.15 154.873C1065.15 149.27 1063.49 143.667 1060.52 140.535C1057.54 137.239 1052.58 134.769 1045.14 134.769C1036.87 134.769 1031.58 137.405 1028.44 141.195ZM1064.15 118.453V68.8501H1101.69V186.183C1101.69 191.622 1102.85 200.026 1102.85 200.026H1068.12L1065.31 188.327C1061.18 195.247 1049.27 201.345 1032.24 201.345C1016.2 201.345 1003.46 195.742 995.693 185.03C989.906 177.449 986.929 167.726 986.929 155.202C986.929 143.171 989.906 133.285 995.693 125.539C1003.13 114.993 1017.36 107.741 1034.06 107.741C1047.12 107.741 1058.7 111.367 1064.15 118.453Z" fill="#1419E9"/>
<path d="M1160.4 200.192H1122.7C1121.54 199.863 1121.21 198.38 1121.21 188.657V109.555H1159.57V188.657C1159.57 197.885 1159.57 199.697 1160.4 200.192ZM1121.04 74.4532H1159.74V102.304H1121.04V74.4532Z" fill="#1419E9"/>
</svg>
