<svg width="1197" height="362" viewBox="0 0 1197 362" fill="none" xmlns="http://www.w3.org/2000/svg">
<path fill-rule="evenodd" clip-rule="evenodd" d="M215.307 51.4489C215.758 51.6169 216.21 51.7849 216.662 51.9529C219.938 48.5676 221.729 44.6342 222.5 40.3222C220.102 44.0315 217.705 47.7409 215.307 51.4489ZM229.883 252.974C229.946 251.348 230.515 249.689 231.105 247.966C232.141 244.941 233.244 241.718 231.805 238.125C231.589 238.965 231.372 239.778 231.162 240.566C229.885 245.345 228.847 249.229 229.883 252.974ZM179.704 121.608L179.702 121.613C178.621 124.104 177.541 126.594 176.45 129.082C183.358 118.038 188.729 106.628 194.101 95.2154C199.385 83.9889 204.67 72.7602 211.421 61.8756C197.343 80.9606 188.524 101.283 179.704 121.608ZM156.072 142.652C154.888 145.608 154.182 147.366 153.476 149.125C153.237 149.059 152.968 149.013 152.699 148.968C152.112 148.869 151.525 148.77 151.249 148.454C149.889 146.905 151.119 145.435 152.271 144.06C152.61 143.654 152.943 143.257 153.201 142.868C155.392 139.558 156.541 136.109 157.69 132.661C158.491 130.256 159.292 127.851 160.446 125.496C160.792 124.791 161.108 124.08 161.424 123.371C162.711 120.484 163.982 117.631 167.121 115.374C167.758 114.917 168.609 113.836 168.436 113.481C165.097 106.67 171.707 100.507 176.287 96.237C176.511 96.0284 176.73 95.8243 176.942 95.6249C179.42 93.3011 179.566 91.0777 179.696 89.0838C179.823 87.15 179.935 85.432 182.148 84.0475L182.149 84.0956C182.357 89.9383 182.358 89.9754 175.066 100.174C174.547 100.901 174.997 101.378 175.458 101.867C176.047 102.493 176.655 103.137 175.282 104.346C174.122 105.369 173.302 107.369 173.814 109.48C177.666 106.553 179.309 102.702 180.352 99.9435C182.474 94.3205 185.386 88.9281 188.296 83.5381C189.412 81.4719 190.527 79.4059 191.598 77.3275C192.581 75.42 192.543 73.5322 192.506 71.6473C192.457 69.2068 192.408 66.7711 194.574 64.3036C194.883 63.9521 195.077 63.5274 195.262 63.1216C195.746 62.0586 196.171 61.126 198.449 61.9849C199.933 62.5454 200.395 61.3834 200.81 60.3388C200.936 60.0218 201.058 59.7155 201.202 59.4715C202.769 56.8315 204.303 54.1807 205.836 51.53L205.837 51.5286C208.78 46.4405 211.724 41.3527 214.902 36.3422C217.163 32.7796 219.675 29.302 222.189 25.8232C223.922 23.4249 225.655 21.026 227.306 18.5982C228.064 17.4843 228.969 17.2134 229.993 16.9066C230.17 16.8535 230.351 16.7993 230.536 16.7395C232.073 16.2422 232.575 15.1849 232.47 13.9889C232.388 13.0622 232.141 12.0836 230.67 12.5316C230.554 12.5671 230.436 12.6043 230.318 12.6416C229.067 13.037 227.807 13.4356 227.924 11.9062C228.06 10.1343 229.575 8.94204 231.077 7.75914C231.687 7.27936 232.295 6.80098 232.807 6.2862C233.695 5.39606 234.872 5.6548 236.016 5.90622C236.148 5.93537 236.28 5.96442 236.411 5.99156C237.05 6.12353 237.061 6.73773 237.072 7.31031C237.086 8.06827 237.099 8.7533 238.562 8.15022C240.373 7.40462 240.003 6.4763 239.63 5.54389C239.473 5.15071 239.316 4.7568 239.322 4.37556C239.328 4.05032 239.549 3.6924 239.793 3.2977C239.912 3.10671 240.035 2.9069 240.142 2.69823C243.589 6.1424 247.91 4.67133 252.113 3.24034C253.351 2.81884 254.579 2.40081 255.771 2.1129C256.294 1.98687 256.771 1.82132 257.224 1.66398C258.602 1.18544 259.762 0.782757 261.327 1.79821C263.838 3.42354 267.383 2.41954 270.669 1.30354C278.609 -1.39646 282.033 0.00754452 282.683 6.36221C284.028 19.4949 280.753 32.9546 277.481 46.3964L277.426 46.6235C276.748 49.4071 276.246 52.2244 275.745 55.0372C274.813 60.2654 273.883 65.4779 271.835 70.4289C266.759 82.6981 264.39 94.9322 262.022 107.156C261.034 112.259 260.046 117.36 258.862 122.461C246.483 175.777 235.153 229.088 228.933 282.257C228.896 282.569 228.79 282.888 228.601 283.455C228.481 283.814 228.327 284.274 228.137 284.896C226.64 281.099 227.184 277.725 227.707 274.478C227.786 273.988 227.865 273.501 227.935 273.016C228.042 272.29 228.156 271.564 228.271 270.838L228.272 270.835C228.736 267.894 229.2 264.952 229.118 262.032C225.25 274.99 223.125 287.9 221.612 300.789C219.858 315.729 218.902 330.573 219.494 345.225C219.506 345.512 219.562 345.817 219.621 346.131C219.822 347.215 220.043 348.4 218.473 349.294C217.35 349.934 216.7 349.454 216.027 348.957C215.61 348.648 215.184 348.334 214.632 348.277C213.811 349.077 214.142 349.76 214.476 350.446C214.826 351.167 215.177 351.891 214.193 352.757C212.179 352.867 212.201 351.765 212.223 350.613C212.243 349.593 212.264 348.535 210.877 348.244C209.75 349.131 209.624 350.386 209.497 351.651C209.29 353.701 209.081 355.775 204.609 356.345C204.227 356.235 204.367 355.739 204.533 355.15C204.786 354.253 205.1 353.14 203.725 352.846C202.323 354.112 202.669 355.19 203.032 356.324C203.213 356.89 203.399 357.469 203.376 358.093C202.795 357.918 202.102 357.991 201.421 358.063C200.119 358.201 198.862 358.334 198.521 356.721C198.421 356.246 197.536 355.812 197.537 355.982C197.573 359.769 195.295 359.486 193.199 359.226C192.288 359.113 191.412 359.004 190.776 359.236C179.373 363.381 174.969 361.005 175.04 351.358C175.297 316.696 179.796 281.66 185.534 246.505C190.114 218.45 195.939 190.376 201.763 162.3L201.764 162.299C203.963 151.697 206.163 141.094 208.296 130.493C208.474 129.6 208.616 128.706 208.202 127.73C203.654 133.395 201.233 139.502 198.809 145.618L198.809 145.619C198.267 146.984 197.726 148.35 197.161 149.712C194.569 155.952 191.898 162.18 189.228 168.409C185.698 176.642 182.168 184.874 178.821 193.133C178.161 194.761 177.511 196.39 176.861 198.018C172.401 209.187 167.953 220.328 160.56 230.926C158.077 234.484 155.666 236.237 151.057 236.01C149.09 235.913 147.089 235.931 145.088 235.948C140.244 235.991 135.405 236.033 131.072 234.449L131.062 234.445C129.807 233.987 128.122 233.372 127.433 235.42C126.812 237.264 125.478 237.35 124.929 236.345C122.629 232.139 118.192 232.581 113.787 233.02C111.942 233.204 110.103 233.388 108.429 233.229C106.049 233.005 104.504 232.364 103.644 230.806C97.3586 219.426 95.8459 206.552 94.3234 193.594C94.2406 192.889 94.1578 192.184 94.0742 191.48C93.6394 187.816 93.3973 184.103 93.154 180.371C92.6028 171.916 92.0449 163.36 89.2236 155.041C84.3769 163.768 81.0622 172.294 77.9262 180.84C71.3234 198.833 62.3172 229.988 55.1354 254.831C52.6295 263.5 50.3457 271.4 48.4636 277.705C45.6369 287.177 44.9902 287.358 34.1396 286.15C33.0669 286.031 32.0051 285.945 30.9552 285.86C26.8938 285.531 23.0117 285.216 19.3703 283.038C17.5089 281.925 10.7676 282.004 6.43293 283.104C0.0049324 284.736 -0.0737186 280.809 0.0156147 278.177C0.247615 271.354 1.09428 264.617 5.73961 257.593C10.057 251.065 16.7629 226.356 20.014 214.376C20.5472 212.412 20.9874 210.79 21.3089 209.646C21.7426 208.105 22.099 206.553 22.4549 205.002C23.9483 198.495 25.4346 192.019 32.5969 186.561C33.8529 185.605 36.2009 183.744 35.6209 181.172C35.1055 180.46 34.5098 181.206 33.8826 181.99C33.0837 182.99 32.2336 184.054 31.4329 182.253C30.3316 179.772 32.0436 177.038 34.0396 175.654C42.4744 169.807 43.5579 162.729 44.6343 155.697C44.9714 153.495 45.3077 151.297 45.8689 149.144C45.9789 148.72 45.9874 148.41 45.9942 148.16C46.0118 147.518 46.0187 147.266 47.6982 146.501C51.9209 144.574 54.0449 132.102 50.9529 129.452C49.5426 128.242 50.1249 126.879 50.6786 125.583C50.7708 125.367 50.8623 125.153 50.9436 124.942C52.9756 119.667 54.4917 114.359 56.0103 109.042C58.1525 101.542 60.2997 94.024 63.9076 86.5555C65.0358 84.2207 66.3911 81.9731 67.7414 79.7337C69.1694 77.3656 70.5918 75.0066 71.7342 72.5635C72.7108 70.4752 73.8112 68.4029 74.9107 66.3322C76.7609 62.8477 78.6089 59.3674 79.8609 55.8222C81.5523 51.0298 85.1047 50.639 89.1095 50.1985L89.2089 50.1875C89.6616 50.1376 90.1102 50.1024 90.5561 50.0675C92.4413 49.9197 94.2769 49.7759 96.1596 48.5315C97.5862 47.5902 99.7396 46.6729 98.9769 49.6529C98.6319 51.0066 99.5968 50.4305 100.215 50.0612C100.35 49.9809 100.468 49.9104 100.553 49.8715C103.28 48.621 106.028 48.4379 108.773 48.2549C111.001 48.1065 113.227 47.9581 115.438 47.2395C115.653 47.1698 115.936 47.0583 116.2 46.9547C116.585 46.803 116.928 46.6682 116.949 46.7062C119.017 50.3841 122.945 49.2842 126.487 48.2926C127.316 48.0606 128.123 47.8344 128.881 47.6769C133.002 46.8196 133.569 48.1436 134.094 50.6396C138.782 72.9209 140.76 95.7916 139.021 119.384C138.525 126.12 139.048 132.649 139.571 139.173C140.002 144.55 140.433 149.925 140.293 155.41C140.262 156.653 140.733 157.862 141.21 158.982L141.248 159.071C141.635 159.987 142.113 161.117 143.621 160.872C145.222 160.611 145.38 159.39 145.51 158.39C145.519 158.317 145.528 158.245 145.538 158.174C145.912 155.493 148.188 154.524 150.453 153.56C151.624 153.061 152.791 152.564 153.692 151.833C157.52 148.722 158.298 146.574 156.072 142.652ZM225.98 291.5C228.585 294.573 227.358 298.047 226.131 301.522C225.661 302.854 225.191 304.185 224.936 305.494C223.801 302.805 224.479 299.927 225.157 297.048C225.596 295.181 226.035 293.315 225.98 291.5ZM222.633 318.698C222.313 322.002 221.998 325.256 222.807 328.721C223.05 327.354 223.275 326.123 223.483 324.982C223.897 322.714 224.246 320.803 224.551 318.893C225.38 313.704 225.362 313.675 222.762 309.68L222.716 309.609C223.205 312.799 222.918 315.768 222.633 318.698Z" fill="white"/>
<path fill-rule="evenodd" clip-rule="evenodd" d="M1028.44 141.196C1025.79 144.492 1024.47 149.929 1024.47 154.873C1024.47 159.653 1025.62 164.761 1027.77 167.892C1030.58 172.012 1035.88 175.143 1044.48 175.143C1052.58 175.143 1057.54 172.836 1060.68 169.047C1063.49 165.585 1065.15 160.147 1065.15 154.873C1065.15 149.271 1063.49 143.668 1060.52 140.536C1057.54 137.24 1052.58 134.769 1045.14 134.769C1036.87 134.769 1031.58 137.405 1028.44 141.196ZM1064.15 118.453V68.8506H1101.69V186.184C1101.69 191.623 1102.85 200.027 1102.85 200.027H1068.12L1065.31 188.328C1061.18 195.248 1049.27 201.345 1032.24 201.345C1016.2 201.345 1003.46 195.743 995.693 185.031C989.906 177.449 986.929 167.727 986.929 155.203C986.929 143.172 989.906 133.285 995.693 125.54C1003.13 114.993 1017.36 107.741 1034.06 107.741C1047.12 107.741 1058.7 111.368 1064.15 118.453ZM684.466 190.799C684.466 198.875 684.466 199.863 685.127 200.192H723.161C722.169 199.368 722.169 196.731 722.169 191.953V191.952V78.9028C722.169 74.6175 721.838 71.1588 721.507 69.6735H683.805C684.135 71.1588 684.466 75.1122 684.466 80.3868V190.799ZM290.219 200.192H327.922C327.095 199.697 327.095 197.885 327.095 188.657V109.555H288.73V188.657C288.73 198.38 289.06 199.863 290.219 200.192ZM327.259 74.4535H288.564V102.304H327.259V74.4535ZM1040.4 244.74C1033.03 244.997 1025.21 245.27 1018.08 243.332C1019.55 243.281 1021 243.231 1022.42 243.181L1022.43 243.18C1034.7 242.748 1045.05 242.384 1055.73 242.765C1059.82 242.911 1062.17 243.432 1060.82 244.392C1060.45 244.658 1059.47 244.881 1058.5 245.104L1058.5 245.104C1058.05 245.206 1057.61 245.308 1057.22 245.415C1052.36 244.323 1046.54 244.526 1040.4 244.74ZM980.324 243.413L980.326 243.415L980.31 243.413L980.276 243.412L980.292 243.411L980.31 243.406L980.324 243.413ZM980.276 243.412C959.834 244.52 939.011 244.828 918.188 245.137L918.187 245.137C899.295 245.417 880.404 245.696 861.795 246.573C900.453 243.753 939.56 241.884 980.276 243.412ZM996.774 243.313C991.76 242.624 986.038 241.839 980.31 243.406C979.573 242.982 978.469 242.56 977.361 242.137L977.36 242.137C974.414 241.012 971.439 239.876 975.247 238.655C978.783 237.521 983.777 237.672 988.747 237.822C991.255 237.898 993.758 237.974 996.064 237.884C998.022 239.488 994.509 239.615 990.83 239.649C990.241 239.655 989.603 239.65 988.955 239.645C985.962 239.623 982.788 239.6 983.55 240.577C984.001 241.157 988.506 242.029 990.972 241.997C997.96 241.903 1004.9 241.645 1011.96 241.384L1011.96 241.384L1011.96 241.384C1014.62 241.285 1017.3 241.186 1020 241.095C1018.72 239.892 1015.28 239.656 1011.59 239.402C1008.54 239.193 1005.32 238.972 1003.02 238.184C1009.36 238.745 1012.57 238.006 1015.96 237.227C1019.45 236.426 1023.11 235.582 1030.56 236.072C1049.45 237.313 1070.08 237.111 1082.68 232.724C1086.62 231.352 1091.24 231.395 1095.98 231.439L1095.98 231.439C1097.08 231.449 1098.2 231.46 1099.31 231.452C1103.04 231.427 1106.79 231.425 1110.54 231.424C1125.06 231.418 1139.63 231.411 1153.75 230.035C1151.59 229.218 1148.2 229.155 1144.67 229.09C1140.8 229.018 1136.76 228.943 1134.02 227.869C1148.64 228.289 1157.15 226.408 1165.7 224.518C1173.63 222.766 1181.59 221.005 1194.5 221.06C1192.05 224.236 1193.04 227.454 1194.04 230.701C1195.28 234.711 1196.54 238.764 1191.32 242.835C1188.95 244.69 1191.07 246.514 1193.25 248.391C1195.16 250.043 1197.13 251.735 1196.12 253.525C1192.86 259.305 1169.91 263.3 1145.06 261.071C1136.91 260.34 1131.82 260.204 1124.07 261.039C1114.94 262.022 1105.03 262.053 1095.11 262.084C1090.72 262.098 1086.33 262.112 1082.01 262.208C1069.8 262.479 1057.57 262.823 1045.35 263.168L1045.34 263.168L1045.34 263.168C1026.18 263.708 1007.05 264.246 988.12 264.499C948.525 265.024 909.786 266.175 870.986 267.697C869.605 267.752 867.921 267.811 866.749 267.688C849.335 265.861 833.346 266.994 817.365 268.127L817.364 268.127C808.992 268.72 800.623 269.313 792.052 269.48C779.824 269.719 767.731 270.275 755.635 270.832L755.634 270.832C731.992 271.919 708.333 273.007 683.622 271.731C679.939 271.54 675.702 271.839 671.539 272.133C670.028 272.24 668.526 272.346 667.064 272.428C655.841 273.054 644.623 273.686 633.405 274.318L633.393 274.318C544.452 279.326 455.512 284.334 364.088 286.675C331.441 287.511 298.761 287.707 265.958 287.221C256.329 287.079 253.208 286.671 251.372 284.009C249.544 281.361 250.807 278.77 252.069 276.181C253.374 273.503 254.678 270.827 252.565 268.088C249.912 264.649 259.75 261.16 274.773 260.031C280.12 259.629 285.461 259.182 290.815 258.733L290.821 258.733L290.821 258.733C316.644 256.57 342.786 254.381 371.549 257.129C372.154 257.188 373.208 257.235 373.569 257.163C384.485 255.002 395.402 255.805 406.393 256.614H406.394H406.394H406.394H406.394H406.395H406.395H406.395H406.395H406.395C414.67 257.222 422.987 257.834 431.38 257.187L431.919 257.145C437.13 256.738 445.207 256.108 448.833 258.833C450.562 260.135 462.145 259.235 467.781 257.633C479.128 254.411 480.049 254.557 493.95 257.013C497.544 257.649 504.908 257.433 510.341 257.272C525.539 256.819 540.694 256.295 557.231 255.724C563.557 255.505 570.086 255.279 576.897 255.048C566.655 257.405 554.201 257.806 541.789 258.205H541.789C530.139 258.58 518.526 258.954 508.812 260.943C512.666 260.833 516.199 260.723 519.514 260.619L519.526 260.619L519.532 260.619L519.533 260.619C526.525 260.401 532.554 260.213 538.61 260.117C539.389 260.105 540.173 260.089 540.955 260.073L540.956 260.073C548.267 259.924 555.278 259.782 553.752 262.773C552.624 264.985 560.692 265.109 568.766 264.391C598.949 261.703 629.57 260.153 661.85 262.559C665.892 262.86 667.529 262.179 669.131 261.512C669.635 261.303 670.136 261.095 670.706 260.919C672.974 260.221 676.194 259.835 679.941 260.28C683.472 260.699 684.788 261.36 682.817 262.265C682.779 262.283 682.74 262.301 682.7 262.319L682.609 262.359L682.554 262.384C682.501 262.407 682.448 262.43 682.394 262.454L682.389 262.456L682.377 262.461C680.93 263.096 679.265 263.826 684.574 264.071C688.928 264.271 690.869 263.493 692.306 262.743C697.936 259.807 704.442 260.565 712.325 263.284C712.792 259.633 722.283 258.134 731.527 256.675C734.462 256.212 737.371 255.752 739.96 255.229C743.442 256.08 741.245 256.687 739.041 257.295C737.223 257.797 735.4 258.3 736.762 258.943C743.647 259.546 746.559 258.573 749.463 257.602L749.714 257.518L749.863 257.468C749.935 257.444 750.006 257.421 750.078 257.397C750.148 257.374 750.218 257.351 750.289 257.328C752.96 256.457 759.088 255.773 758.729 257.093C758.434 258.182 762.717 257.939 766.587 257.72C771.227 257.456 775.274 257.227 770.125 259.367C766.597 260.833 772.801 261.059 776.305 260.933C776.888 260.913 777.5 260.891 778.133 260.87L778.137 260.87C784.199 260.661 792.135 260.387 793.762 259.589C800.29 256.385 812.173 256.04 823.987 255.697C830.069 255.52 836.134 255.344 841.44 254.779C849.626 253.907 851.994 255.289 854.496 256.748C855.617 257.402 856.764 258.072 858.474 258.561C864.505 252.832 881.65 251.145 902.062 253.86C897.854 250.761 897.854 250.761 883.5 248.343C894.823 247.738 899.057 247.512 902.926 248.592C905.236 249.237 907.417 250.348 910.899 252.121L910.9 252.121C917.752 251.907 918.351 250.833 918.951 249.758C919.412 248.933 919.873 248.108 923.162 247.671C926.171 247.987 925.713 248.544 925.251 249.105C924.832 249.614 924.409 250.128 926.588 250.467C931.159 250.191 931.181 249.404 931.204 248.605L931.205 248.569C931.21 248.372 930.983 248.136 930.753 247.896C930.048 247.162 929.308 246.393 935.061 246.588C941.238 246.798 939.417 247.32 937.433 247.89C936.741 248.088 936.029 248.292 935.63 248.491C930.582 250.999 937.093 251.763 946.513 251.503C950.608 251.39 954.601 251.104 958.6 250.817C962.084 250.567 965.573 250.316 969.14 250.18C969.745 250.157 970.361 250.131 970.982 250.105L970.986 250.105L970.988 250.105C977.875 249.817 985.264 249.509 983.041 252.481C981.986 253.892 988.881 254.985 994.718 254.416C1003.67 253.544 1000.33 253.315 996.6 253.06C994.179 252.895 991.59 252.717 992.081 252.345L992.123 252.314L992.169 252.278L992.22 252.239C992.321 252.161 992.418 252.084 992.513 252.009L992.513 252.009L992.514 252.008C994.009 250.827 995.053 250.003 1003.21 249.656C1013.11 249.235 1023.13 249.112 1033.16 248.988C1045.45 248.837 1057.77 248.685 1069.98 247.987C1064.83 246.925 1058.76 247.055 1052.79 247.182C1049.67 247.249 1046.57 247.316 1043.64 247.211C1041.29 247.127 1039.01 247.128 1036.76 247.128H1036.76C1031.52 247.13 1026.39 247.131 1020.76 246.072C1013.5 244.703 1008.84 245.945 1004.39 247.131C1002.76 247.568 1001.15 247.997 999.45 248.285C991.801 247.394 995.323 246.551 998.699 245.742C1001.74 245.013 1004.67 244.313 999.178 243.632C998.398 243.535 997.596 243.425 996.774 243.313ZM914.193 241.196C921.28 239.989 929.116 239.762 936.884 239.538C943.999 239.332 951.058 239.127 957.433 238.173C961.159 237.616 963.971 238.338 963.795 239.298C963.79 239.324 963.786 239.35 963.781 239.375C963.692 239.915 963.595 240.499 959.493 240.542C948.476 240.66 937.469 240.833 926.463 241.006L926.459 241.006L926.455 241.006L926.451 241.006C922.365 241.07 918.28 241.134 914.193 241.196ZM407.465 228.701H367.777L380.345 200.851L339.5 109.556H379.353C379.432 110.186 384.248 122.674 389.266 135.686L389.267 135.688C394.731 149.858 400.434 164.647 400.52 165.42C400.6 164.706 405.398 152.102 410.369 139.043L410.372 139.035L410.374 139.03L410.375 139.028L410.376 139.025C415.724 124.977 421.27 110.409 421.356 109.556H460.383L407.465 228.701ZM519.423 131.472C527.36 131.472 533.148 134.108 535.959 137.735C537.943 140.207 538.77 143.338 538.77 145.48H498.918C499.083 143.502 500.571 139.876 502.555 137.57C505.863 133.779 511.816 131.472 519.423 131.472ZM519.423 201.675C541.747 201.675 556.96 196.567 565.89 186.679C570.686 181.406 573.827 174.979 574.82 169.375H538.274C537.943 171.023 536.455 173 533.81 174.65C530.832 176.627 526.038 177.944 519.423 177.944C511.486 177.944 505.036 175.967 502.059 172.176C499.91 169.54 499.083 166.574 498.918 163.936H575.482C576.308 153.719 574.986 143.996 571.678 135.923C564.236 118.783 547.204 107.248 519.754 107.248C497.264 107.248 481.058 114.168 471.302 126.199C464.852 133.779 461.875 143.502 461.875 154.379C461.875 166.574 465.018 175.967 470.64 183.218C480.066 195.907 496.932 201.675 519.423 201.675ZM671.893 141.855C665.113 139.548 658.829 138.064 648.081 138.064C635.348 138.064 627.741 145.48 627.741 159.159V200.192H589.541V109.555H626.584V124.882C628.237 114.663 643.946 107.248 656.349 107.248C663.129 107.248 668.586 108.072 671.893 109.06V141.855ZM795.426 161.795C782.527 161.795 776.739 165.586 776.739 172.176C776.739 176.462 780.378 178.439 788.977 178.439C798.402 178.439 808.159 175.308 811.135 163.936C806.671 162.619 803.859 161.795 795.426 161.795ZM813.451 200.192C812.789 200.192 811.797 196.236 811.797 192.447C805.017 198.05 792.285 201.346 774.259 201.346C754.085 201.346 739.202 194.424 738.375 178.603C738.375 178.373 738.369 178.053 738.361 177.666V177.666V177.665V177.665C738.329 176.11 738.276 173.497 738.541 171.518C739.367 156.687 754.415 144.987 787.654 143.832C794.765 143.667 802.371 143.996 810.639 144.822C810.474 142.514 810.309 140.867 809.317 138.559C807.663 134.768 803.033 132.462 795.757 132.462C789.638 132.462 785.339 133.286 782.693 135.594C780.543 137.57 779.221 139.712 779.055 141.69H743.171C743.337 137.406 744.825 131.143 747.47 126.694C756.069 112.192 772.937 107.248 797.079 107.248C826.514 107.248 842.555 117.135 846.027 133.12C847.185 138.228 847.846 148.116 847.515 156.192C847.35 161.466 847.35 171.518 847.35 179.428C847.35 187.832 847.681 198.05 849.335 200.192H813.451ZM935.495 200.192H972.537C971.875 199.863 971.875 195.413 971.875 142.843C971.875 121.256 961.456 107.412 936.651 107.412C921.935 107.412 908.87 112.356 903.578 122.408V109.555H867.034V200.192H904.737V151.083C904.737 142.843 911.516 137.076 920.777 137.076C930.037 137.076 934.006 142.184 934.006 150.919C934.006 198.875 934.006 200.192 935.495 200.192ZM1122.7 200.192H1160.4C1159.57 199.697 1159.57 197.885 1159.57 188.657V109.555H1121.21V188.657C1121.21 198.38 1121.54 199.863 1122.7 200.192ZM1159.74 74.4535H1121.04V102.304H1159.74V74.4535Z" fill="white"/>
</svg>
